<?xml version="1.0" encoding="utf-8"?>
<!-- Generator: Adobe Illustrator 25.3.1, SVG Export Plug-In . SVG Version: 6.00 Build 0)  -->
<svg version="1.1" id="Layer_1" xmlns="http://www.w3.org/2000/svg" xmlns:xlink="http://www.w3.org/1999/xlink" x="0px" y="0px"
	 viewBox="0 0 1008.71 768" style="enable-background:new 0 0 1008.71 768;" xml:space="preserve">
<style type="text/css">
	.st0{fill:#FFFFFF;}
</style>
<g>
	<path class="st0" d="M960.67,192.13V144.1h-48.03h-48.03h-48.03h-48.03h-48.03h-48.03h-48.03H576.4h-48.03h-48.03H432.3V96.07
		V48.03V0h-48.03h-48.03H288.2v48.03v48.03v48.03h-48.03h-48.03H144.1H96.07H48.03v48.03H0v48.03v48.03v48.03v48.03v48.03v48.03
		v48.03h48.03v48.03h48.03h48.03h48.03h48.03h48.03h48.03h48.03h48.03h48.03h48.03h48.03v48.03h-48.03v48.03v48.03v48.03h48.03
		h48.03h48.03v-48.03h48.03v-48.03v-48.03V576.4h48.03h48.03h48.03h48.03h48.03v-48.03h48.03v-48.03V432.3v-48.03v-48.03V288.2
		v-48.03v-48.03H960.67z M864.61,336.24v48.03v48.03h-48.03h-48.03h-48.03v-48.03v-48.03V288.2h48.03h48.03h48.03V336.24z
		 M144.1,384.27v-48.03V288.2h48.03h48.03h48.03v48.03v48.03v48.03h-48.03h-48.03H144.1V384.27z M432.3,384.27v-48.03V288.2h48.03
		h48.03h48.03v48.03v48.03v48.03h-48.03h-48.03H432.3V384.27z"/>
</g>
</svg>
