<?xml version="1.0" encoding="utf-8"?>
<!-- Generator: Adobe Illustrator 25.3.1, SVG Export Plug-In . SVG Version: 6.00 Build 0)  -->
<svg version="1.1" id="Layer_1" xmlns="http://www.w3.org/2000/svg" xmlns:xlink="http://www.w3.org/1999/xlink" x="0px" y="0px"
	 viewBox="0 0 60 60" style="enable-background:new 0 0 60 60;" xml:space="preserve" width="16" height="16">
<style type="text/css">
	.st0{fill:#1E1E1E;}
	.st1{fill:#38456C;}
	.st2{fill:#5750B5;}
	.st3{fill:#3A663A;}
	.st4{fill:#193C3E;}
	.st5{fill:#3E8948;}
	.st6{fill:#265C42;}
	.st7{fill:#EEF1EC;}
	.st8{fill:#4F26A2;}
	.st9{fill:#9163E4;}
	.st10{fill:#9D69F6;}
	.st11{fill:#DCCFFF;}
</style>
<polygon class="st0" points="55.34,14.44 54.61,14.44 54.61,13.71 54.61,10.82 51.72,10.82 50.99,10.82 50.99,10.09 50.99,6.47 
	50.99,3.58 48.1,3.58 40.86,3.58 37.24,3.58 36.51,3.58 36.51,2.85 36.51,-0.03 33.62,-0.03 30,-0.03 27.11,-0.03 27.11,2.86 
	27.11,3.59 26.38,3.59 19.14,3.59 15.52,3.59 12.63,3.59 12.63,6.48 12.63,10.1 12.63,10.83 11.9,10.83 8.28,10.83 5.39,10.83 
	5.39,13.72 5.39,14.45 4.66,14.45 1.77,14.45 1.77,17.34 1.77,24.58 1.77,27.47 1.77,28.2 1.77,35.44 1.77,39.06 1.77,41.95 
	4.66,41.95 5.39,41.95 5.39,42.68 5.39,46.3 5.39,49.19 8.28,49.19 9.01,49.19 9.01,49.92 9.01,52.81 11.9,52.81 12.63,52.81 
	12.63,53.54 12.63,56.43 15.52,56.43 16.25,56.43 16.25,57.16 16.25,60.05 19.14,60.05 22.76,60.05 26.38,60.05 30,60.05 
	33.62,60.05 40.86,60.05 43.75,60.05 43.75,57.16 43.75,56.43 44.48,56.43 47.37,56.43 47.37,53.54 47.37,52.8 48.1,52.8 
	50.99,52.8 50.99,49.91 50.99,49.18 51.72,49.18 54.61,49.18 54.61,46.29 54.61,42.67 54.61,41.94 55.34,41.94 58.23,41.94 
	58.23,39.05 58.23,35.43 58.23,31.81 58.23,28.19 58.23,27.46 58.23,24.57 58.23,20.95 58.23,17.33 58.23,14.44 "/>
<g>
	<rect x="29.95" y="52.42" class="st1" width="3.45" height="3.45"/>
	<rect x="23.06" y="52.42" class="st1" width="3.45" height="3.45"/>
	<rect x="19.61" y="52.42" class="st1" width="3.45" height="3.45"/>
	<rect x="33.4" y="48.97" class="st2" width="3.45" height="3.45"/>
	<rect x="19.61" y="48.97" class="st2" width="3.45" height="3.45"/>
	<rect x="29.95" y="45.52" class="st1" width="3.45" height="3.45"/>
	<rect x="16.16" y="45.52" class="st1" width="3.45" height="3.45"/>
	<rect x="9.26" y="42.07" class="st2" width="3.45" height="3.45"/>
	<rect x="33.4" y="38.62" class="st1" width="3.45" height="3.45"/>
	<rect x="19.61" y="38.62" class="st1" width="3.45" height="3.45"/>
	<rect x="16.16" y="38.62" class="st1" width="3.45" height="3.45"/>
	<rect x="33.4" y="35.17" class="st1" width="3.45" height="3.45"/>
	<rect x="23.06" y="35.17" class="st2" width="3.45" height="3.45"/>
	<rect x="12.71" y="35.17" class="st2" width="3.45" height="3.45"/>
	<rect x="9.26" y="35.17" class="st1" width="3.45" height="3.45"/>
	<rect x="19.61" y="28.28" class="st1" width="3.45" height="3.45"/>
	<rect x="43.75" y="24.83" class="st1" width="3.45" height="3.45"/>
	<rect x="40.3" y="24.83" class="st1" width="3.45" height="3.45"/>
	<rect x="29.95" y="24.83" class="st1" width="3.45" height="3.45"/>
	<rect x="26.5" y="24.83" class="st1" width="3.45" height="3.45"/>
	<rect x="19.61" y="24.83" class="st1" width="3.45" height="3.45"/>
	<rect x="16.16" y="24.83" class="st1" width="3.45" height="3.45"/>
	<rect x="9.26" y="24.83" class="st3" width="3.45" height="3.45"/>
	<rect x="29.95" y="21.38" class="st1" width="3.45" height="3.45"/>
	<rect x="16.16" y="21.38" class="st1" width="3.45" height="3.45"/>
	<rect x="9.26" y="21.38" class="st2" width="3.45" height="3.45"/>
	<rect x="36.85" y="11.03" class="st4" width="3.45" height="3.45"/>
	<rect x="33.4" y="11.03" class="st4" width="3.45" height="3.45"/>
	<rect x="29.95" y="11.03" class="st4" width="3.45" height="3.45"/>
	<rect x="19.61" y="11.03" class="st4" width="3.45" height="3.45"/>
	<rect x="40.3" y="7.58" class="st5" width="6.9" height="3.45"/>
	<rect x="19.61" y="7.58" class="st5" width="6.9" height="3.45"/>
	<rect x="40.3" y="11.03" class="st6" width="3.45" height="3.45"/>
	<rect x="23.06" y="11.03" class="st6" width="6.9" height="3.45"/>
	<rect x="36.85" y="7.58" class="st6" width="3.45" height="3.45"/>
	<rect x="16.16" y="7.58" class="st6" width="3.45" height="3.45"/>
	<rect x="29.95" y="4.14" class="st6" width="3.45" height="6.9"/>
	<rect x="40.3" y="14.48" class="st7" width="3.45" height="3.45"/>
	<rect x="33.4" y="52.42" class="st8" width="6.9" height="3.45"/>
	<rect x="26.5" y="52.42" class="st8" width="3.45" height="3.45"/>
	<rect x="29.95" y="48.97" class="st8" width="3.45" height="3.45"/>
	<rect x="16.16" y="48.97" class="st8" width="3.45" height="3.45"/>
	<rect x="43.75" y="45.52" class="st8" width="3.45" height="3.45"/>
	<rect x="16.16" y="42.07" class="st8" width="3.45" height="3.45"/>
	<rect x="36.85" y="38.62" class="st8" width="10.35" height="3.45"/>
	<polygon class="st8" points="29.95,42.07 29.95,45.52 33.4,45.52 33.4,38.62 23.06,38.62 23.06,42.07 	"/>
	<rect x="12.71" y="38.62" class="st8" width="3.45" height="3.45"/>
	<rect x="5.81" y="35.17" class="st8" width="3.45" height="3.45"/>
	<polygon class="st8" points="50.65,24.83 47.2,24.83 47.2,38.62 54.09,38.62 54.09,35.17 50.65,35.17 	"/>
	<rect x="19.61" y="31.72" class="st8" width="3.45" height="6.9"/>
	<rect x="9.26" y="28.28" class="st8" width="3.45" height="6.9"/>
	<polygon class="st8" points="33.4,35.17 36.85,35.17 36.85,28.28 40.3,28.28 40.3,24.83 33.4,24.83 	"/>
	<rect x="23.06" y="24.83" class="st8" width="3.45" height="3.45"/>
	<rect x="12.71" y="24.83" class="st8" width="3.45" height="3.45"/>
	<rect x="43.75" y="14.48" class="st8" width="3.45" height="10.35"/>
	<rect x="29.95" y="14.48" class="st8" width="3.45" height="6.9"/>
	<rect x="16.16" y="14.48" class="st8" width="3.45" height="6.9"/>
	<rect x="43.75" y="42.07" class="st9" width="3.45" height="3.45"/>
	<polygon class="st9" points="40.3,42.07 33.4,42.07 33.4,45.52 36.85,45.52 36.85,48.97 40.3,48.97 40.3,52.42 43.75,52.42 
		43.75,45.52 40.3,45.52 	"/>
	<polygon class="st9" points="26.5,42.07 19.61,42.07 19.61,45.52 23.06,45.52 23.06,48.97 26.5,48.97 26.5,52.42 29.95,52.42 
		29.95,45.52 26.5,45.52 	"/>
	<rect x="12.71" y="42.07" class="st9" width="3.45" height="6.9"/>
	<rect x="47.2" y="38.62" class="st9" width="3.45" height="3.45"/>
	<rect x="9.26" y="38.62" class="st9" width="3.45" height="3.45"/>
	<polygon class="st9" points="33.4,38.62 33.4,31.72 29.95,31.72 29.95,28.28 23.06,28.28 23.06,31.72 26.5,31.72 26.5,35.17 
		29.95,35.17 29.95,38.62 	"/>
	<polygon class="st9" points="19.61,38.62 19.61,31.72 16.16,31.72 16.16,28.28 12.71,28.28 12.71,35.17 16.16,35.17 16.16,38.62 	
		"/>
	<rect x="50.65" y="31.72" class="st9" width="3.45" height="3.45"/>
	<polygon class="st9" points="47.2,31.72 43.75,31.72 43.75,28.28 36.85,28.28 36.85,31.72 40.3,31.72 40.3,35.17 43.75,35.17 
		43.75,38.62 47.2,38.62 	"/>
	<rect x="5.81" y="28.28" class="st9" width="3.45" height="6.9"/>
	<rect x="50.65" y="21.38" class="st9" width="3.45" height="3.45"/>
	<polygon class="st9" points="43.75,24.83 43.75,17.93 40.3,17.93 40.3,14.48 33.4,14.48 33.4,17.93 36.85,17.93 36.85,21.38 
		40.3,21.38 40.3,24.83 	"/>
	<polygon class="st9" points="9.26,21.38 12.71,21.38 12.71,24.83 16.16,24.83 16.16,17.93 12.71,17.93 12.71,14.48 9.26,14.48 
		9.26,17.93 5.81,17.93 5.81,24.83 9.26,24.83 	"/>
	<polygon class="st9" points="23.06,21.38 26.5,21.38 26.5,24.83 29.95,24.83 29.95,17.93 26.5,17.93 26.5,14.48 19.61,14.48 
		19.61,17.93 23.06,17.93 	"/>
	<rect x="47.2" y="14.48" class="st9" width="3.45" height="6.9"/>
	<rect x="36.85" y="48.97" class="st10" width="3.45" height="3.45"/>
	<rect x="23.06" y="48.97" class="st10" width="3.45" height="3.45"/>
	<rect x="33.4" y="45.52" class="st10" width="3.45" height="3.45"/>
	<rect x="19.61" y="45.52" class="st10" width="3.45" height="3.45"/>
	<rect x="47.2" y="42.07" class="st10" width="3.45" height="3.45"/>
	<rect x="40.3" y="42.07" class="st10" width="3.45" height="3.45"/>
	<rect x="26.5" y="42.07" class="st10" width="3.45" height="3.45"/>
	<rect x="26.5" y="35.17" class="st10" width="3.45" height="3.45"/>
	<polygon class="st10" points="40.3,31.72 36.85,31.72 36.85,38.62 43.75,38.62 43.75,35.17 40.3,35.17 	"/>
	<rect x="23.06" y="31.72" class="st10" width="3.45" height="3.45"/>
	<rect x="50.65" y="28.28" class="st10" width="3.45" height="3.45"/>
	<rect x="16.16" y="28.28" class="st10" width="3.45" height="3.45"/>
	<rect x="47.2" y="21.38" class="st10" width="3.45" height="3.45"/>
	<polygon class="st10" points="40.3,24.83 40.3,21.38 36.85,21.38 36.85,17.93 33.4,17.93 33.4,24.83 	"/>
	<polygon class="st10" points="26.5,24.83 26.5,21.38 23.06,21.38 23.06,17.93 19.61,17.93 19.61,24.83 	"/>
	<rect x="50.65" y="17.93" class="st10" width="3.45" height="3.45"/>
	<rect x="12.71" y="14.48" class="st10" width="3.45" height="3.45"/>
	<rect x="43.75" y="28.28" class="st11" width="3.45" height="3.45"/>
	<rect x="29.95" y="28.28" class="st11" width="3.45" height="3.45"/>
	<rect x="26.5" y="14.48" class="st11" width="3.45" height="3.45"/>
</g>
</svg>
