<?xml version="1.0" encoding="utf-8"?>
<!-- Generator: Adobe Illustrator 25.3.1, SVG Export Plug-In . SVG Version: 6.00 Build 0)  -->
<svg version="1.1" id="Layer_1" xmlns="http://www.w3.org/2000/svg" xmlns:xlink="http://www.w3.org/1999/xlink" x="0px" y="0px"
	 viewBox="0 0 60 60" style="enable-background:new 0 0 60 60;" xml:space="preserve" width="16" height="16">
<style type="text/css">
	.st0{fill:#C28569;}
	.st1{fill:#F69FD6;}
	.st2{fill:#E462B5;}
	.st3{fill:#E8B796;}
	.st4{fill:#FFD4F1;}
	.st5{fill:#1E1E1E;}
</style>
<g>
	<rect x="24.38" y="45" class="st0" width="11.25" height="3.75"/>
	<rect x="31.88" y="15" class="st1" width="3.75" height="26.25"/>
	<rect x="43.12" y="15" class="st1" width="3.75" height="26.25"/>
	<polygon class="st1" points="39.38,7.5 39.38,3.75 16.88,3.75 16.88,7.5 13.12,7.5 13.12,15 16.88,15 16.88,11.25 46.88,11.25 
		46.88,7.5 	"/>
	<polygon class="st2" points="43.12,11.25 35.62,11.25 35.62,41.25 31.88,41.25 31.88,11.25 16.88,11.25 16.88,15 13.12,15 
		13.12,45 46.88,45 46.88,41.25 43.12,41.25 	"/>
	<rect x="24.38" y="48.75" class="st3" width="11.25" height="7.5"/>
	<rect x="43.12" y="11.25" class="st4" width="3.75" height="3.75"/>
	<rect x="31.88" y="11.25" class="st4" width="3.75" height="3.75"/>
	<rect x="39.38" y="3.75" class="st4" width="3.75" height="3.75"/>
	<rect x="16.88" class="st5" width="26.25" height="3.75"/>
	<rect x="43.12" y="3.75" class="st5" width="3.75" height="3.75"/>
	<rect x="13.12" y="3.75" class="st5" width="3.75" height="3.75"/>
	<rect x="9.38" y="7.5" class="st5" width="3.75" height="37.5"/>
	<rect x="13.12" y="45" class="st5" width="11.25" height="3.75"/>
	<rect x="20.62" y="48.75" class="st5" width="3.75" height="7.5"/>
	<rect x="24.38" y="56.25" class="st5" width="11.25" height="3.75"/>
	<rect x="35.62" y="45" class="st5" width="3.75" height="11.25"/>
	<rect x="39.38" y="45" class="st5" width="7.5" height="3.75"/>
	<rect x="46.88" y="7.5" class="st5" width="3.75" height="37.5"/>
</g>
</svg>
