<?xml version="1.0" encoding="utf-8"?>
<!-- Generator: Adobe Illustrator 25.3.1, SVG Export Plug-In . SVG Version: 6.00 Build 0)  -->
<svg version="1.1" id="Layer_1" xmlns="http://www.w3.org/2000/svg" xmlns:xlink="http://www.w3.org/1999/xlink" x="0px" y="0px"
	 viewBox="0 0 60 60" style="enable-background:new 0 0 60 60;" xml:space="preserve" width="32" height="32">
<style type="text/css">
	.st0{fill:#FFFFFF;}
	.st1{fill:url(#SVGID_1_);}
</style>
<g>
	<path class="st0" d="M56.6,18.64v-2.8h-2.8H51h-2.8h-2.8h-2.8h-2.8h-2.8h-2.8h-2.8h-2.8h-2.8v-2.8v-2.8v-2.8h-2.8h-2.8h-2.8v2.8
		v2.8v2.8h-2.8h-2.8h-2.8h-2.8h-2.8v2.8h-2.8v2.8v2.8v2.8v2.8v2.8v2.8v2.8h2.8v2.8h2.8h2.8h2.8h2.8h2.8h2.8h2.8h2.8h2.8h2.8h2.8v2.8
		h-2.8v2.8v2.8v2.8h2.8h2.8h2.8v-2.8h2.8v-2.8v-2.8v-2.8h2.8h2.8H51h2.8h2.8v-2.8h2.8v-2.8v-2.8v-2.8v-2.8v-2.8v-2.8v-2.8H56.6z
		 M51,27.03v2.8v2.8h-2.8h-2.8h-2.8v-2.8v-2.8v-2.8h2.8h2.8H51V27.03z M9.05,29.82v-2.8v-2.8h2.8h2.8h2.8v2.8v2.8v2.8h-2.8h-2.8
		h-2.8V29.82z M25.83,29.82v-2.8v-2.8h2.8h2.8h2.8v2.8v2.8v2.8h-2.8h-2.8h-2.8V29.82z"/>
	<linearGradient id="SVGID_1_" gradientUnits="userSpaceOnUse" x1="9.8186" y1="48.6355" x2="50.2385" y2="8.2156">
		<stop  offset="0" style="stop-color:#D8DC1D"/>
		<stop  offset="0.03" style="stop-color:#CFDA21"/>
		<stop  offset="0.0799" style="stop-color:#B5D32D"/>
		<stop  offset="0.1436" style="stop-color:#8CC841"/>
		<stop  offset="0.2177" style="stop-color:#53BA5B"/>
		<stop  offset="0.268" style="stop-color:#28AF6F"/>
		<stop  offset="0.5219" style="stop-color:#5493CC"/>
		<stop  offset="0.9944" style="stop-color:#E81F77"/>
	</linearGradient>
	<path class="st1" d="M40.45,52.83h-9.65v-9.66h2.8v-1.53H2.83v-2.8h-2.8V18h2.8v-2.8h13.98V6.82h9.65v8.39h30.77V18h2.8v20.84h-2.8
		v2.8H43.25v8.39h-2.8V52.83z M32.06,51.56h7.12v-2.8h2.8v-8.39h13.98v-2.8h2.8V19.27h-2.8v-2.8H25.2V8.08h-7.13v8.39H4.09v2.8h-2.8
		v18.31h2.8v2.8h30.77v4.06h-2.8V51.56z M51.64,33.25h-9.66V23.6h9.66V33.25z M43.25,31.99h7.12v-7.12h-7.12V31.99z M34.86,33.25
		H25.2V23.6h9.66V33.25z M26.47,31.99h7.13v-7.12h-7.13V31.99z M18.08,33.25H8.42V23.6h9.65V33.25z M9.69,31.99h7.13v-7.12H9.69
		V31.99z"/>
</g>
</svg>
