<?xml version="1.0" encoding="utf-8"?>
<!-- Generator: Adobe Illustrator 25.3.1, SVG Export Plug-In . SVG Version: 6.00 Build 0)  -->
<svg version="1.1" id="Layer_1" xmlns="http://www.w3.org/2000/svg" xmlns:xlink="http://www.w3.org/1999/xlink" x="0px" y="0px"
	 viewBox="0 0 60 60" style="enable-background:new 0 0 60 60;" xml:space="preserve" width="16" height="16">
<style type="text/css">
	.st0{fill:#F7E6DB;}
	.st1{fill:#1E1E1E;}
	.st2{fill:#8B9BB5;}
	.st3{fill:#F6757A;}
	.st4{fill:#ECF0F1;}
	.st5{fill:#E43D44;}
	.st6{fill:#A32732;}
</style>
<g>
	<rect x="30" y="47.82" class="st0" width="4.35" height="7.84"/>
	<rect x="25.65" y="55.65" class="st1" width="8.69" height="4.35"/>
	<polygon class="st1" points="25.65,43.47 16.96,43.47 16.96,47.82 21.31,47.82 21.31,55.65 25.65,55.65 	"/>
	<polygon class="st1" points="34.35,43.47 34.35,55.65 38.69,55.65 38.69,47.82 43.04,47.82 43.04,43.47 	"/>
	<rect x="43.04" y="39.12" class="st1" width="4.35" height="4.35"/>
	<rect x="12.61" y="39.12" class="st1" width="4.35" height="4.35"/>
	<rect x="8.26" y="8.69" class="st1" width="4.35" height="30.43"/>
	<rect x="47.39" y="8.69" class="st1" width="4.35" height="30.43"/>
	<rect x="43.04" y="4.35" class="st1" width="4.35" height="4.35"/>
	<rect x="12.61" y="4.35" class="st1" width="4.35" height="4.35"/>
	<rect x="16.96" class="st1" width="26.08" height="4.35"/>
	<polygon class="st2" points="25.65,43.47 25.65,55.65 30,55.65 30,47.82 34.35,47.82 34.35,43.47 	"/>
	<polygon class="st3" points="43.04,21.74 34.35,21.74 34.35,26.08 47.39,26.08 47.39,13.04 43.04,13.04 	"/>
	<rect x="34.35" y="8.69" class="st4" width="4.35" height="8.69"/>
	<path class="st5" d="M43.04,4.35H16.96v17.39h8.69v4.35H12.61v13.04h34.78V26.08H34.35v-4.35h8.69v-8.69h4.35V8.69h-4.35
		C43.04,8.69,43.04,4.35,43.04,4.35z M38.69,17.39h-4.35v-8.7h4.35V17.39z"/>
	<rect x="16.96" y="39.12" class="st6" width="26.08" height="4.35"/>
	<polygon class="st6" points="25.65,26.08 25.65,21.74 16.96,21.74 16.96,8.69 12.61,8.69 12.61,26.08 	"/>
</g>
</svg>
