<?xml version="1.0" encoding="utf-8"?>
<!-- Generator: Adobe Illustrator 25.3.1, SVG Export Plug-In . SVG Version: 6.00 Build 0)  -->
<svg version="1.1" id="Layer_1" xmlns="http://www.w3.org/2000/svg" xmlns:xlink="http://www.w3.org/1999/xlink" x="0px" y="0px"
	 viewBox="0 0 60 60" style="enable-background:new 0 0 60 60;" xml:space="preserve" width="16" height="16">
<style type="text/css">
	.st0{fill:#1E1E1E;}
	.st1{fill:#A6B3C9;}
	.st2{fill:#ED643E;}
	.st3{fill:#FEAE34;}
	.st4{fill:#A22633;}
	.st5{fill:#E43B44;}
	.st6{fill:#B4BFCF;}
	.st7{fill:#D7DDE0;}
	.st8{fill:#FECB4A;}
	.st9{fill:#FEE761;}
</style>
<g>
	<polygon class="st0" points="57.9,34.78 34.46,34.78 34.46,32.23 34.46,30.13 32.36,30.13 32.14,30.13 32.14,29.91 32.14,27.59 
		32.14,25.5 32.13,25.5 30.04,25.5 27.72,25.5 25.4,25.5 23.08,25.5 20.77,25.5 18.45,25.5 16.13,25.5 13.81,25.5 11.49,25.5 
		9.18,25.5 6.83,25.5 4.73,25.5 4.73,27.59 4.73,29.91 4.73,30.13 4.5,30.13 2.4,30.13 2.4,32.23 2.4,43.84 2.4,46.16 2.4,48.47 
		2.4,50.79 2.4,52.89 4.5,52.89 32.35,52.89 34.45,52.89 34.45,50.79 34.45,48.47 34.45,48.25 57.9,48.25 60,48.25 60,46.16 
		60,43.84 60,41.52 60,36.88 60,34.78 	"/>
	<polygon class="st0" points="5.7,25.08 5.7,23.47 7.31,23.47 7.31,21.87 29.32,21.87 31.42,21.87 31.42,20.26 33.03,20.26 
		33.03,18.66 34.63,18.66 34.63,16.56 34.63,6.91 34.63,4.81 33.03,4.81 33.03,3.22 31.42,3.22 31.42,1.62 29.82,1.62 29.82,0 
		27.72,0 26.11,0 24.02,0 24.02,2.1 24.02,3.21 22.41,3.21 22.41,4.81 5.21,4.81 3.11,4.81 3.11,6.42 1.51,6.42 1.51,8.02 
		-0.1,8.02 -0.1,10.12 -0.1,16.55 -0.1,18.15 -0.1,22.98 -0.1,25.08 2,25.08 3.61,25.08 	"/>
</g>
<g>
	<g>
		<rect x="25.4" y="41.52" class="st1" width="2.32" height="4.65"/>
		<rect x="20.75" y="41.52" class="st1" width="2.32" height="4.65"/>
		<rect x="16.11" y="41.52" class="st1" width="2.32" height="4.65"/>
		<rect x="11.46" y="41.52" class="st1" width="2.32" height="4.65"/>
		<rect x="6.83" y="41.52" class="st1" width="2.32" height="4.65"/>
		<rect x="55.57" y="41.52" class="st2" width="2.32" height="2.32"/>
		<rect x="34.68" y="41.52" class="st2" width="16.25" height="2.32"/>
		<rect x="6.83" y="46.17" class="st2" width="2.32" height="2.32"/>
		<rect x="4.5" y="43.84" class="st2" width="2.32" height="2.32"/>
		<rect x="50.94" y="41.52" class="st3" width="4.65" height="2.32"/>
		<rect x="4.5" y="46.17" class="st3" width="2.32" height="2.32"/>
		<rect x="32.36" y="43.84" class="st4" width="25.54" height="2.32"/>
		<rect x="4.5" y="48.49" class="st4" width="27.86" height="2.32"/>
		<polygon class="st5" points="32.36,32.23 30.04,32.23 30.04,46.17 9.14,46.17 9.14,48.49 32.36,48.49 32.36,43.84 34.68,43.84 
			34.68,41.52 57.9,41.52 57.9,36.88 32.36,36.88 		"/>
		<rect x="4.5" y="32.23" class="st5" width="2.32" height="11.61"/>
		<rect x="27.72" y="29.91" class="st6" width="2.32" height="2.32"/>
		<rect x="27.72" y="34.56" class="st6" width="2.32" height="2.32"/>
		<rect x="27.72" y="39.19" class="st6" width="2.32" height="6.96"/>
		<rect x="25.4" y="27.59" class="st6" width="2.32" height="2.32"/>
		<rect x="25.4" y="32.23" class="st6" width="2.32" height="2.32"/>
		<rect x="25.4" y="36.88" class="st6" width="2.32" height="2.32"/>
		<rect x="23.07" y="29.91" class="st6" width="2.32" height="2.32"/>
		<rect x="23.07" y="34.56" class="st6" width="2.32" height="2.32"/>
		<rect x="23.07" y="39.19" class="st6" width="2.32" height="6.96"/>
		<rect x="20.75" y="27.59" class="st6" width="2.32" height="2.32"/>
		<rect x="20.75" y="32.23" class="st6" width="2.32" height="2.32"/>
		<rect x="20.75" y="36.88" class="st6" width="2.32" height="2.32"/>
		<rect x="18.44" y="29.91" class="st6" width="2.32" height="2.32"/>
		<rect x="18.44" y="34.56" class="st6" width="2.32" height="2.32"/>
		<rect x="18.44" y="39.19" class="st6" width="2.32" height="6.96"/>
		<rect x="16.11" y="27.59" class="st6" width="2.32" height="2.32"/>
		<rect x="16.11" y="32.23" class="st6" width="2.32" height="2.32"/>
		<rect x="16.11" y="36.88" class="st6" width="2.32" height="2.32"/>
		<rect x="13.79" y="29.91" class="st6" width="2.32" height="2.32"/>
		<rect x="13.79" y="34.56" class="st6" width="2.32" height="2.32"/>
		<rect x="13.79" y="39.19" class="st6" width="2.32" height="6.96"/>
		<rect x="11.46" y="27.59" class="st6" width="2.32" height="2.32"/>
		<rect x="11.46" y="32.23" class="st6" width="2.32" height="2.32"/>
		<rect x="11.46" y="36.88" class="st6" width="2.32" height="2.32"/>
		<rect x="9.14" y="29.91" class="st6" width="2.32" height="2.32"/>
		<rect x="9.14" y="34.56" class="st6" width="2.32" height="2.32"/>
		<rect x="9.14" y="39.19" class="st6" width="2.32" height="6.96"/>
		<rect x="6.83" y="27.59" class="st6" width="2.32" height="2.32"/>
		<rect x="6.83" y="32.23" class="st6" width="2.32" height="2.32"/>
		<rect x="6.83" y="36.88" class="st6" width="2.32" height="2.32"/>
		<rect x="27.72" y="27.59" class="st7" width="2.32" height="2.32"/>
		<rect x="27.72" y="32.23" class="st7" width="2.32" height="2.32"/>
		<rect x="27.72" y="36.88" class="st7" width="2.32" height="2.32"/>
		<rect x="25.4" y="29.91" class="st7" width="2.32" height="2.32"/>
		<rect x="25.4" y="34.56" class="st7" width="2.32" height="2.32"/>
		<rect x="25.4" y="39.19" class="st7" width="2.32" height="2.32"/>
		<rect x="23.07" y="27.59" class="st7" width="2.32" height="2.32"/>
		<rect x="23.07" y="32.23" class="st7" width="2.32" height="2.32"/>
		<rect x="23.07" y="36.88" class="st7" width="2.32" height="2.32"/>
		<rect x="20.75" y="29.91" class="st7" width="2.32" height="2.32"/>
		<rect x="20.75" y="34.56" class="st7" width="2.32" height="2.32"/>
		<rect x="20.75" y="39.19" class="st7" width="2.32" height="2.32"/>
		<rect x="18.44" y="27.59" class="st7" width="2.32" height="2.32"/>
		<rect x="18.44" y="32.23" class="st7" width="2.32" height="2.32"/>
		<rect x="18.44" y="36.88" class="st7" width="2.32" height="2.32"/>
		<rect x="16.11" y="29.91" class="st7" width="2.32" height="2.32"/>
		<rect x="16.11" y="34.56" class="st7" width="2.32" height="2.32"/>
		<rect x="16.11" y="39.19" class="st7" width="2.32" height="2.32"/>
		<rect x="13.79" y="27.59" class="st7" width="2.32" height="2.32"/>
		<rect x="13.79" y="32.23" class="st7" width="2.32" height="2.32"/>
		<rect x="13.79" y="36.88" class="st7" width="2.32" height="2.32"/>
		<rect x="11.46" y="29.91" class="st7" width="2.32" height="2.32"/>
		<rect x="11.46" y="34.56" class="st7" width="2.32" height="2.32"/>
		<rect x="11.46" y="39.19" class="st7" width="2.32" height="2.32"/>
		<rect x="9.14" y="27.59" class="st7" width="2.32" height="2.32"/>
		<rect x="9.14" y="32.23" class="st7" width="2.32" height="2.32"/>
		<rect x="9.14" y="36.88" class="st7" width="2.32" height="2.32"/>
		<rect x="6.83" y="29.91" class="st7" width="2.32" height="2.32"/>
		<rect x="6.83" y="34.56" class="st7" width="2.32" height="2.32"/>
		<rect x="6.83" y="39.19" class="st7" width="2.32" height="2.32"/>
	</g>
	<g>
		<rect x="5.21" y="10.14" class="st8" width="1.6" height="1.6"/>
		<rect x="16.47" y="8.53" class="st8" width="1.6" height="1.6"/>
		<rect x="6.83" y="8.53" class="st8" width="3.21" height="1.6"/>
		<rect x="18.08" y="8.53" class="st9" width="6.43" height="1.6"/>
		<rect x="10.04" y="8.53" class="st9" width="6.43" height="1.6"/>
		<rect x="24.51" y="6.92" class="st9" width="1.6" height="1.6"/>
		<polygon class="st3" points="27.72,2.1 26.11,2.1 26.11,5.32 24.51,5.32 24.51,6.92 26.11,6.92 26.11,8.53 24.51,8.53 
			24.51,10.14 6.83,10.14 6.83,11.75 5.21,11.75 5.21,10.14 6.83,10.14 6.83,8.53 24.51,8.53 24.51,6.92 5.21,6.92 5.21,8.53 
			3.61,8.53 3.61,10.14 2,10.14 2,16.57 3.61,16.57 3.61,14.96 5.21,14.96 5.21,13.35 26.11,13.35 26.11,11.75 27.72,11.75 
			27.72,10.14 29.32,10.14 29.32,3.71 27.72,3.71 		"/>
		<polygon class="st6" points="30.94,14.96 29.32,14.96 29.32,16.57 3.61,16.57 3.61,18.18 2,18.18 2,23 3.61,23 3.61,21.38 
			5.21,21.38 5.21,19.78 29.32,19.78 29.32,18.18 30.94,18.18 30.94,16.57 32.54,16.57 32.54,6.92 30.94,6.92 		"/>
		<rect x="2" y="16.57" class="st7" width="1.6" height="1.6"/>
		<polygon class="st7" points="29.32,10.14 27.72,10.14 27.72,11.75 26.11,11.75 26.11,13.35 5.21,13.35 5.21,14.96 3.61,14.96 
			3.61,16.57 29.32,16.57 29.32,14.96 30.94,14.96 30.94,5.32 29.32,5.32 		"/>
	</g>
</g>
</svg>
