<?xml version="1.0" encoding="utf-8"?>
<!-- Generator: Adobe Illustrator 25.3.1, SVG Export Plug-In . SVG Version: 6.00 Build 0)  -->
<svg version="1.1" id="Layer_1" xmlns="http://www.w3.org/2000/svg" xmlns:xlink="http://www.w3.org/1999/xlink" x="0px" y="0px"
	 viewBox="0 0 60 60" style="enable-background:new 0 0 60 60;" xml:space="preserve" width="16" height="16">
<style type="text/css">
	.st0{fill:#E4F1F1;}
	.st1{fill:#FFFFFF;}
	.st2{fill:#1E1E1E;}
	.st3{fill:#CAD4D4;}
</style>
<polygon class="st0" points="50.63,1.88 58.13,9.38 56.25,30 52.5,48.75 48.75,56.25 45,58.13 41.25,56.25 37.5,45 30,43.13 
	22.5,45 18.75,56.25 15,58.13 11.25,56.25 7.5,48.75 3.75,30 1.88,9.38 9.38,1.88 24.38,1.88 28.13,5.63 31.88,5.63 35.63,1.88 "/>
<polygon class="st1" points="35.63,1.88 31.88,5.63 28.13,5.63 24.38,1.88 9.38,1.88 1.88,9.38 2.73,18.75 7.5,18.75 7.5,22.5 
	11.25,22.5 11.25,26.25 18.75,26.25 18.75,30 41.25,30 41.25,26.25 48.75,26.25 48.75,22.5 52.5,22.5 52.5,18.75 57.27,18.75 
	58.13,9.38 50.63,1.88 "/>
<path class="st2" d="M26.25,0H7.5v3.75h18.75V0z M33.75,7.5V3.75h-7.5V7.5H33.75z M52.5,0H33.75v3.75H52.5V0z M56.25,7.5V3.75H52.5
	V7.5H56.25z M56.25,7.5V30H60V7.5H56.25z M52.5,48.75h3.75V30H52.5V48.75z M48.75,56.25h3.75v-7.5h-3.75V56.25z M41.25,60h7.5v-3.75
	h-7.5V60z M37.5,45v11.25h3.75V45H37.5z M22.5,41.25V45h15v-3.75H22.5z M18.75,56.25h3.75V45h-3.75V56.25z M11.25,60h7.5v-3.75h-7.5
	V60z M7.5,48.75v7.5h3.75v-7.5H7.5z M3.75,30v18.75H7.5V30H3.75z M0,7.5V30h3.75V7.5H0z M7.5,3.75H3.75V7.5H7.5V3.75z"/>
<path class="st3" d="M41.25,56.25h7.5V52.5h-7.5V56.25z M11.25,56.25h7.5V52.5h-7.5V56.25z M48.75,30v3.75h-7.5v3.75h-22.5v-3.75
	h-7.5V30H7.5v18.75h3.75v-7.5H15V45h7.5v-3.75h15V45H45v-3.75h3.75v7.5h3.75V30H48.75z"/>
</svg>
