<?xml version="1.0" encoding="utf-8"?>
<!-- Generator: Adobe Illustrator 25.3.1, SVG Export Plug-In . SVG Version: 6.00 Build 0)  -->
<svg version="1.1" id="Layer_1" xmlns="http://www.w3.org/2000/svg" xmlns:xlink="http://www.w3.org/1999/xlink" x="0px" y="0px"
	 viewBox="0 0 60 60" style="enable-background:new 0 0 60 60;" xml:space="preserve" width="16" height="16">
<style type="text/css">
	.st0{fill:#1E1E1E;}
	.st1{fill:#F6757A;}
	.st2{fill:#A22633;}
	.st3{fill:#E43B44;}
	.st4{fill:#5A6988;}
	.st5{fill:#8B9BB4;}
	.st6{fill:#C0CBDC;}
	.st7{fill:#EAD4AA;}
	.st8{fill:#ECF0F1;}
</style>
<polygon class="st0" points="50.06,5.4 50.06,2.5 47.16,2.5 47.16,-0.39 43.04,-0.39 40.14,-0.39 37.24,-0.39 34.35,-0.39 
	22.76,-0.39 16.96,-0.39 12.84,-0.39 12.84,2.5 9.94,2.5 9.94,5.4 7.05,5.4 7.05,9.52 7.05,52.98 7.05,57.1 9.94,57.1 9.94,60 
	14.06,60 45.94,60 50.06,60 50.06,57.1 52.95,57.1 52.95,52.98 52.95,9.52 52.95,5.4 "/>
<g>
	<path class="st1" d="M40.14,32.7h-2.9V15.32h-2.9v31.87h8.69V15.32h-2.9V32.7z M40.14,41.39h-2.9v-2.9h2.9V41.39z"/>
	<rect x="37.24" y="9.52" class="st1" width="5.79" height="2.9"/>
	<rect x="28.55" y="9.52" class="st1" width="5.79" height="2.9"/>
	<rect x="22.76" y="9.52" class="st1" width="2.9" height="2.9"/>
	<polygon class="st2" points="22.76,52.98 22.76,32.7 19.86,32.7 19.86,38.5 16.96,38.5 16.96,35.6 14.06,35.6 14.06,24.01 
		16.96,24.01 16.96,32.7 19.86,32.7 19.86,26.91 22.76,26.91 22.76,6.62 14.06,6.62 14.06,9.52 11.17,9.52 11.17,52.98 	"/>
	<path class="st3" d="M45.94,6.62H22.76v2.9h2.9v2.9h-2.9v11.59h5.79v-5.79h2.9v8.69h-5.79v2.9h2.9v2.9h-2.9v-2.9h-2.9v23.18h26.08
		V9.52h-2.9V6.62z M34.35,15.32h8.69v31.87h-8.69V15.32z M43.04,12.42H28.55v-2.9h14.49V12.42z"/>
	<rect x="14.06" y="32.7" class="st4" width="2.9" height="2.9"/>
	<rect x="14.06" y="24.01" class="st4" width="2.9" height="2.9"/>
	<rect x="14.06" y="52.98" class="st5" width="31.87" height="2.9"/>
	<rect x="16.96" y="32.7" class="st5" width="2.9" height="5.79"/>
	<rect x="19.86" y="26.91" class="st5" width="2.9" height="5.79"/>
	<rect x="14.06" y="26.91" class="st5" width="2.9" height="5.79"/>
	<rect x="40.14" y="3.73" class="st5" width="2.9" height="2.9"/>
	<rect x="16.96" y="3.73" class="st5" width="5.79" height="2.9"/>
	<rect x="25.65" y="29.8" class="st6" width="2.9" height="2.9"/>
	<polygon class="st6" points="31.45,26.91 31.45,18.21 28.55,18.21 28.55,24.01 22.76,24.01 22.76,29.8 25.65,29.8 25.65,26.91 	"/>
	<rect x="37.24" y="3.73" class="st6" width="2.9" height="2.9"/>
	<rect x="22.76" y="3.73" class="st6" width="11.59" height="2.9"/>
	<rect x="37.24" y="38.5" class="st7" width="2.9" height="2.9"/>
	<rect x="37.24" y="24.01" class="st7" width="2.9" height="8.69"/>
	<rect x="37.24" y="15.32" class="st8" width="2.9" height="8.69"/>
	<rect x="34.35" y="9.52" class="st8" width="2.9" height="2.9"/>
	<rect x="34.35" y="3.73" class="st8" width="2.9" height="2.9"/>
</g>
</svg>
