<?xml version="1.0" encoding="utf-8"?>
<!-- Generator: Adobe Illustrator 25.3.1, SVG Export Plug-In . SVG Version: 6.00 Build 0)  -->
<svg version="1.1" id="Layer_1" xmlns="http://www.w3.org/2000/svg" xmlns:xlink="http://www.w3.org/1999/xlink" x="0px" y="0px"
	 viewBox="0 0 60 60" style="enable-background:new 0 0 60 60;" xml:space="preserve" width="16" height="16">
<style type="text/css">
	.st0{fill:#1E1E1E;}
	.st1{fill:#574135;}
	.st2{fill:#745747;}
	.st3{fill:#F6E7DF;}
	.st4{fill:#EBDDD5;}
	.st5{fill:#FEAE34;}
	.st6{fill:#D77643;}
</style>
<polygon class="st0" points="50.09,5.3 50.09,3.31 50.09,0.2 47,0.2 26.59,0.2 11.28,0.2 8.16,0.2 8.16,3.31 8.16,5.3 5.61,5.3 
	5.61,8.41 5.61,13.51 5.61,16.62 8.16,16.62 8.16,28.81 8.16,31.92 10.71,31.92 10.71,44.11 10.71,47.22 13.26,47.22 13.26,56.86 
	13.26,60 16.37,60 21.47,60 41.88,60 44.99,60 44.99,56.89 44.99,47.25 47.54,47.25 47.54,44.14 47.54,31.94 50.09,31.94 
	50.09,28.83 50.09,16.63 52.64,16.63 52.64,13.52 52.64,8.42 52.64,5.3 "/>
<g>
	<rect x="29.14" y="23.72" class="st1" width="2.55" height="15.31"/>
	<path class="st2" d="M36.79,23.72v-2.55H24.03v2.55h-2.55v15.31h2.55v2.55h12.76v-2.55h2.55V23.72H36.79z M29.14,39.03V23.72h2.55
		v15.31H29.14z"/>
	<polygon class="st3" points="46.99,3.31 26.59,3.31 26.59,8.41 21.48,8.41 21.48,13.52 49.55,13.52 49.55,8.41 46.99,8.41 	"/>
	<polygon class="st4" points="11.28,3.31 11.28,8.41 8.73,8.41 8.73,13.52 21.48,13.52 21.48,8.41 26.59,8.41 26.59,3.31 	"/>
	<polygon class="st5" points="21.48,23.72 24.03,23.72 24.03,21.17 36.79,21.17 36.79,23.72 39.34,23.72 39.34,39.03 36.79,39.03 
		36.79,41.58 24.03,41.58 24.03,39.03 21.48,39.03 21.48,56.89 41.89,56.89 41.89,44.13 44.44,44.13 44.44,28.82 46.99,28.82 
		46.99,16.07 21.48,16.07 	"/>
	<polygon class="st6" points="11.28,13.52 11.28,28.82 13.83,28.82 13.83,44.13 16.38,44.13 16.38,56.89 21.48,56.89 21.48,16.07 
		46.99,16.07 46.99,13.52 	"/>
</g>
</svg>
